<!DOCTYPE svg PUBLIC "-//W3C//DTD SVG 1.1//EN" "http://www.w3.org/Graphics/SVG/1.1/DTD/svg11.dtd">

<!-- Uploaded to: SVG Repo, www.svgrepo.com, Transformed by: SVG Repo Mixer Tools -->
<svg version="1.1" id="Layer_1" xmlns="http://www.w3.org/2000/svg" xmlns:xlink="http://www.w3.org/1999/xlink" viewBox="0 0 511.982 511.982" xml:space="preserve" width="80px" height="80px" fill="#000000">

<g id="SVGRepo_bgCarrier" stroke-width="0"/>

<g id="SVGRepo_tracerCarrier" stroke-linecap="round" stroke-linejoin="round"/>

<g id="SVGRepo_iconCarrier"> <rect x="245.501" y="151.571" style="fill:#A0D468;" width="21.343" height="152.03"/> <path style="fill:#DA4453;" d="M415.264,101.465c-6.203,39.718-49.232,95.481-88.967,89.294 c-39.732-6.188-61.107-71.981-54.92-111.715s37.609-38.343,77.342-32.155S421.452,61.732,415.264,101.465z"/> <path style="opacity:0.1;enable-background:new ;" d="M289.112,73.95c1.078,0.625,14.797,8.422,38.561,15.953 c12.797,14.765,18.719,30.374,17.594,46.373c-1.812,25.78-21.125,46.373-27.203,52.264c2.656,1.016,5.391,1.781,8.234,2.219 c6.484,1.016,13.062,0.359,19.562-1.594c9.141-12.171,19.141-30.015,20.672-51.201c1-13.828-1.672-27.249-7.969-40.108 c16.342,3.312,35.217,5.766,56.232,6.25c0.172-0.891,0.328-1.766,0.469-2.641c1.109-7.203,0.938-13.374-0.312-18.687 c-69.764-1.734-114.73-27.046-115.184-27.312L289.112,73.95z"/> <path style="fill:#DA4453;" d="M240.379,76.919c6.969,39.593-15.749,106.262-55.342,113.246 c-39.608,6.969-81.091-48.389-88.06-87.997c-6.984-39.592,23.187-48.436,62.795-55.404C199.365,39.779,233.395,37.31,240.379,76.919 z"/> <path style="opacity:0.1;enable-background:new ;" d="M226.629,60.451c-51.342,17.093-102.59,14.718-125.902,12.296 c-3.375,5.594-5.078,12.453-4.703,21c8.906,1.03,22.203,2.14,38.343,2.14c6.578,0,13.625-0.188,21.046-0.641 c15.921,9.719,26,22.234,29.968,37.233c6.609,24.983-5,50.717-8.859,58.232c2.844,0.109,5.671-0.047,8.515-0.547 c6.469-1.141,12.468-3.891,17.984-7.828c4.719-14.468,8.421-34.592,3.031-55.139c-3.484-13.312-10.281-25.077-20.281-35.154 c15.281-2.344,31.374-5.953,47.592-11.344L226.629,60.451z"/> <path style="fill:#ED5564;" d="M341.329,51.201c0,47.139-39.779,119.48-86.919,119.48c-47.139,0-83.763-72.342-83.763-119.48 S207.271,0,254.409,0C301.55,0,341.329,4.062,341.329,51.201z"/> <path style="opacity:0.1;enable-background:new ;" d="M341.313,52.592c0-0.469,0.016-0.938,0.016-1.391 c0-7.672-1.062-14.188-3.031-19.749c-55.607,6.218-97.388,3.031-122.762-0.797c-18.64-2.812-31.343-6.359-37.764-8.406 c-3.453,5.375-5.75,12.047-6.672,20.296c10.593,3.422,34.39,9.828,70.873,12.547c16.999,16.64,25.999,34.687,26.718,53.701 c1.297,33.64-23.546,60.264-23.796,60.529l0.484,0.469c2.969,0.578,5.969,0.891,9.031,0.891c6.406,0,12.687-1.344,18.75-3.781 c8.422-13.641,17.734-34.39,16.875-58.686c-0.656-18.358-6.953-35.733-18.766-51.904c1.875,0.031,3.766,0.047,5.703,0.047 C296.05,56.357,317.516,55.279,341.313,52.592z"/> <path style="fill:#EC87C0;" d="M255.988,511.982c-31.999,0-138.683-341.207-138.683-341.207s65.529,10.655,136.199,10.655 c70.685,0,141.167-10.655,141.167-10.655S287.987,511.982,255.988,511.982z"/> <path style="fill:#D770AD;" d="M336.891,177.4c-21.578,22.577-95.763,96.027-175.557,126.308 c11.968,34.452,25.202,71.061,38.077,103.809c71.279-34.139,135.23-102.824,161.308-133.183 c19.67-57.904,33.951-103.559,33.951-103.559S370.78,174.385,336.891,177.4z"/> </g>

</svg>