<!DOCTYPE svg PUBLIC "-//W3C//DTD SVG 1.1//EN" "http://www.w3.org/Graphics/SVG/1.1/DTD/svg11.dtd">
<!-- Uploaded to: SVG Repo, www.svgrepo.com, Transformed by: SVG Repo Mixer Tools -->
<svg height="800px" width="800px" version="1.1" id="Layer_1" xmlns="http://www.w3.org/2000/svg" xmlns:xlink="http://www.w3.org/1999/xlink" viewBox="0 0 473.98 473.98" xml:space="preserve" fill="#000000" transform="rotate(45)">
<g id="SVGRepo_bgCarrier" stroke-width="0"/>
<g id="SVGRepo_tracerCarrier" stroke-linecap="round" stroke-linejoin="round"/>
<g id="SVGRepo_iconCarrier"> <path style="fill:#ffd1dd;" d="M0.004,236.99C0.004,106.095,106.102,0,236.994,0c130.884,0,236.982,106.095,236.982,236.99 c0,130.884-106.098,236.99-236.982,236.99C106.106,473.976,0.004,367.87,0.004,236.99z"/> <g> <path style="fill:#2F8442;" d="M150.42,195.033c0,0,54.402,163.572,75.135,242.947l6.148-2.391c0,0-65.59-204.462-75.071-239.826 C148.287,164.579,150.42,195.033,150.42,195.033z"/> <path style="fill:#2F8442;" d="M319.466,195.594c0,0-63.195,163.565-70.035,245.315l6.503,1.182c0,0,23.633-128.235,69.144-243.744 C336.911,168.321,319.466,195.594,319.466,195.594z"/> <path style="fill:#2F8442;" d="M267.957,188.908c0,0-4.905,163.337,0.857,236.369l5.437,0.861c0,0-5.575-207.164-0.943-235.617 C277.94,162.068,267.957,188.908,267.957,188.908z"/> <path style="fill:#2F8442;" d="M210.311,183.748c0,0-1.149,170.435,4.846,246.52l5.759-0.221c0,0-9.86-214.977-5.029-244.612 C220.717,155.793,210.311,183.748,210.311,183.748z"/> <path style="fill:#2F8442;" d="M184.878,137.99c0,0,18.877,122.798,33.261,176.601l6.971-1.25c0,0-35.547-152.976-36.007-174.884 C188.642,116.549,184.878,137.99,184.878,137.99z"/> <path style="fill:#2F8442;" d="M236.612,114.809c0,0-12.584,231.115,1.594,311.912l6.496-1.77c0,0-4.101-276.709-1.949-308.911 C244.892,83.838,236.612,114.809,236.612,114.809z"/> </g> <g style="opacity:0.8;"> <path style="fill:#E0DAD2;" d="M291.979,408.401H186.794c-8.397,0,12.688-55.229,12.688-55.229l-71.82-137.642 c0-15.97,12.943-28.905,28.913-28.905h165.028c15.97,0,28.913,12.935,28.913,28.905l-71.82,136.444 C278.696,351.975,299.126,408.401,291.979,408.401z"/> </g> <g style="opacity:0.5;"> <path style="fill:#E0DAD2;" d="M242.329,408.401h-55.536c-7.147,0,12.688-55.229,12.688-55.229l-71.82-137.642 c0-15.97,12.943-28.905,28.913-28.905l132.747,66.065L242.329,408.401z"/> </g> <path style="fill:#F6A2A3;" d="M166.596,133.372c0.92,11.117-4.284,22.787-11.824,23.401c-7.543,0.621-14.574-10.043-15.487-21.156 s4.64-18.469,12.183-19.091C159.007,115.913,165.679,122.255,166.596,133.372z"/> <path style="fill:#fcf7f7;" d="M163.501,137.589c0.674,8.15-3.181,16.194-8.703,16.647c-5.534,0.453-10.649-6.862-11.311-15.005 c-0.674-8.15,3.36-14.047,8.887-14.492C157.903,124.28,162.839,129.44,163.501,137.589z"/> <path style="fill:#F6A2A3;" d="M185.26,151.123c-7.214,8.505-19.132,13.081-24.905,8.187c-5.781-4.898-3.207-17.407,4.004-25.916 c7.222-8.498,16.34-9.777,22.114-4.883S192.474,142.618,185.26,151.123z"/> <path style="fill:#fcf7f7;" d="M180.092,151.913c-5.291,6.241-13.702,9.209-17.934,5.62c-4.224-3.588-2.675-12.382,2.608-18.608 c5.291-6.241,12.314-7.558,16.546-3.97C185.537,138.547,185.383,145.686,180.092,151.913z"/> <path style="fill:#F6A2A3;" d="M152.452,193.623c-5.19-9.875-4.954-22.642,1.74-26.155c6.709-3.521,17.343,3.551,22.518,13.426 c5.19,9.882,2.945,18.81-3.757,22.327C166.259,206.741,157.627,203.493,152.452,193.623z"/> <path style="fill:#fcf7f7;" d="M153.645,188.541c-3.794-7.252-3.39-16.157,1.519-18.739c4.913-2.574,12.483,2.163,16.277,9.399 c3.802,7.237,2.391,14.245-2.529,16.816C163.999,198.599,157.443,195.77,153.645,188.541z"/> <path style="fill:#F6A2A3;" d="M123.453,156.145c11.102-1.051,22.825,4.004,23.54,11.54c0.707,7.528-9.867,14.69-20.969,15.734 c-11.109,1.051-18.526-4.423-19.237-11.94C106.083,163.943,112.351,157.189,123.453,156.145z"/> <path style="fill:#fcf7f7;" d="M127.7,159.187c8.142-0.767,16.239,2.982,16.759,8.505c0.52,5.523-6.731,10.72-14.874,11.487 s-14.084-3.188-14.6-8.718C114.465,164.938,119.565,159.946,127.7,159.187z"/> <path style="fill:#F6A2A3;" d="M139.393,133.81c8.58,7.109,13.31,18.971,8.479,24.804c-4.823,5.833-17.366,3.413-25.953-3.689 c-8.595-7.117-9.976-16.224-5.152-22.058C121.589,127.034,130.798,126.708,139.393,133.81z"/> <path style="fill:#fcf7f7;" d="M140.25,138.97c6.301,5.205,9.369,13.586,5.833,17.852c-3.536,4.284-12.344,2.821-18.642-2.384 c-6.301-5.22-7.704-12.221-4.165-16.486C126.809,133.679,133.948,133.754,140.25,138.97z"/> <path style="fill:#F6A2A3;" d="M182.247,186.307c-11.151,0-22.365-6.125-22.372-13.687c0-7.57,11.203-13.71,22.35-13.717 c11.151-0.015,18.028,6.125,18.035,13.68C200.272,180.152,193.402,186.292,182.247,186.307z"/> <path style="fill:#fcf7f7;" d="M178.3,182.88c-8.18,0.007-15.895-4.486-15.895-10.035c-0.007-5.545,7.704-10.05,15.873-10.05 c8.18-0.015,13.725,4.479,13.732,10.035C192.014,178.375,186.472,182.872,178.3,182.88z"/> <path style="fill:#F6A2A3;" d="M127.307,186.102c3.326-10.642,12.513-19.513,19.73-17.261c7.229,2.26,9.747,14.769,6.432,25.418 c-3.326,10.649-11.225,15.382-18.447,13.134C127.793,205.14,123.988,196.743,127.307,186.102z"/> <path style="fill:#fcf7f7;" d="M131.748,183.355c2.432-7.805,9.018-13.826,14.316-12.168c5.298,1.65,7.293,10.342,4.868,18.155 c-2.432,7.798-8.382,11.753-13.68,10.099C131.954,197.795,129.324,191.157,131.748,183.355z"/> <ellipse transform="matrix(0.0818 0.9966 -0.9966 0.0818 305.977 1.2558)" style="fill:#F4E028;" cx="152.307" cy="166.688" rx="15.943" ry="17.993"/> <ellipse transform="matrix(0.0816 0.9967 -0.9967 0.0816 305.9831 1.2869)" style="fill:#E5CE27;" cx="152.293" cy="166.672" rx="10.511" ry="11.862"/> <path style="fill:#F6A2A3;" d="M355.234,142.828c-2.836,10.788-11.626,20.06-18.945,18.133c-7.315-1.923-10.398-14.316-7.562-25.104 s10.518-15.865,17.841-13.953C353.88,123.834,358.059,132.044,355.234,142.828z"/> <path style="fill:#fcf7f7;" d="M350.905,145.776c-2.077,7.906-8.382,14.215-13.747,12.804c-5.366-1.418-7.753-10.013-5.68-17.912 c2.084-7.914,7.843-12.123,13.212-10.713C350.052,131.363,352.989,137.866,350.905,145.776z"/> <path style="fill:#F6A2A3;" d="M366.927,165.776c-9.631,5.613-22.398,5.972-26.215-0.569c-3.817-6.526,2.769-17.482,12.4-23.102 c9.631-5.613,18.657-3.787,22.481,2.746C379.402,151.396,376.551,160.156,366.927,165.776z"/> <path style="fill:#fcf7f7;" d="M361.79,164.803c-7.061,4.123-15.981,4.123-18.784-0.674c-2.799-4.778,1.602-12.561,8.655-16.677 c7.061-4.123,14.125-3.027,16.917,1.762C371.369,154.012,368.847,160.684,361.79,164.803z"/> <path style="fill:#F6A2A3;" d="M321.842,194.936c-1.601-11.027,2.866-22.997,10.35-24.082c7.491-1.089,15.173,9.115,16.771,20.157 c1.602,11.027-3.487,18.709-10.978,19.798C330.501,211.905,323.448,205.978,321.842,194.936z"/> <path style="fill:#fcf7f7;" d="M324.671,190.543c-1.175-8.09,2.17-16.37,7.659-17.16c5.489-0.797,11.042,6.181,12.221,14.271 c1.179,8.09-2.485,14.23-7.974,15.02C331.085,203.478,325.846,198.629,324.671,190.543z"/> <path style="fill:#F6A2A3;" d="M306.969,149.956c10.818,2.698,20.191,11.364,18.357,18.709c-1.841,7.338-14.193,10.574-25.01,7.873 c-10.825-2.713-15.996-10.335-14.17-17.672C287.99,151.527,296.147,147.243,306.969,149.956z"/> <path style="fill:#fcf7f7;" d="M309.958,154.229c7.936,1.979,14.324,8.213,12.98,13.594c-1.351,5.384-9.923,7.876-17.852,5.89 c-7.929-1.979-12.221-7.689-10.866-13.074C295.56,155.254,302.03,152.242,309.958,154.229z"/> <path style="fill:#F6A2A3;" d="M329.427,134.192c5.729,9.56,6.234,22.32-0.254,26.215c-6.488,3.895-17.512-2.559-23.24-12.116 c-5.751-9.568-4.019-18.615,2.477-22.511C314.89,121.878,323.691,124.631,329.427,134.192z"/> <path style="fill:#fcf7f7;" d="M328.514,139.344c4.21,7.001,4.318,15.925-0.438,18.776c-4.763,2.859-12.576-1.441-16.786-8.449 c-4.21-7.016-3.199-14.084,1.557-16.932C317.603,129.881,324.312,132.328,328.514,139.344z"/> <path style="fill:#F6A2A3;" d="M352.383,197.948c-10.526-3.704-19.053-13.212-16.539-20.348c2.514-7.139,15.121-9.209,25.631-5.497 c10.526,3.689,14.967,11.76,12.46,18.9C371.421,198.146,362.897,201.645,352.383,197.948z"/> <path style="fill:#fcf7f7;" d="M349.801,193.409c-7.719-2.713-13.497-9.515-11.656-14.746c1.841-5.231,10.604-6.922,18.316-4.202 c7.712,2.713,11.454,8.793,9.616,14.032C364.229,193.716,357.505,196.115,349.801,193.409z"/> <path style="fill:#F6A2A3;" d="M300.634,179.479c6.679-8.924,18.294-14.238,24.352-9.714c6.065,4.531,4.277,17.175-2.391,26.114 c-6.672,8.932-15.704,10.765-21.762,6.249C294.763,197.604,293.962,188.418,300.634,179.479z"/> <path style="fill:#fcf7f7;" d="M305.741,178.375c4.891-6.556,13.111-10.043,17.545-6.724c4.445,3.326,3.442,12.183-1.448,18.746 c-4.898,6.541-11.809,8.296-16.262,4.969C301.132,192.058,300.851,184.923,305.741,178.375z"/> <ellipse transform="matrix(-0.2544 0.9671 -0.9671 -0.2544 578.7108 -107.1415)" style="fill:#F4E028;" cx="330.657" cy="169.512" rx="15.948" ry="17.998"/> <ellipse transform="matrix(-0.2545 0.9671 -0.9671 -0.2545 578.7274 -107.1796)" style="fill:#E5CE27;" cx="330.675" cy="169.477" rx="10.511" ry="11.862"/> <path style="fill:#F6A2A3;" d="M289.143,140.747c-0.943,9.908-7.353,19.353-14.077,18.709c-6.732-0.636-11.233-11.124-10.29-21.025 c0.943-9.923,6.986-15.51,13.71-14.881C285.214,124.201,290.086,130.835,289.143,140.747z"/> <path style="fill:#fcf7f7;" d="M285.76,143.962c-0.696,7.27-5.343,13.74-10.275,13.272c-4.932-0.475-8.273-7.712-7.585-14.975 c0.703-7.263,5.167-11.817,10.099-11.341S286.456,136.699,285.76,143.962z"/> <path style="fill:#F6A2A3;" d="M302.759,159.28c-7.682,6.342-18.885,8.494-23.18,3.289c-4.311-5.212-0.079-15.817,7.592-22.159 c7.682-6.335,15.903-6.028,20.206-0.812C311.683,144.811,310.434,152.938,302.759,159.28z"/> <path style="fill:#fcf7f7;" d="M298.089,159.164c-5.628,4.647-13.489,5.949-16.647,2.118c-3.151-3.817-0.4-11.3,5.22-15.947 c5.635-4.647,12.015-4.707,15.173-0.883C304.982,148.268,303.725,154.521,298.089,159.164z"/> <path style="fill:#F6A2A3;" d="M267.235,191.479c-2.997-9.478-0.797-20.681,5.65-22.713c6.447-2.039,14.69,5.852,17.687,15.349 c3.005,9.493-0.374,16.991-6.818,19.031C277.319,205.188,270.247,200.979,267.235,191.479z"/> <path style="fill:#fcf7f7;" d="M269.091,187.213c-2.2-6.971-0.445-14.746,4.277-16.239s10.627,3.858,12.827,10.825 c2.208,6.956-0.131,12.898-4.861,14.383C276.612,197.679,271.291,194.161,269.091,187.213z"/> <path style="fill:#F6A2A3;" d="M247.635,153.982c9.923,0.827,19.439,7.102,18.885,13.848c-0.561,6.724-10.986,11.364-20.909,10.537 c-9.923-0.827-15.588-6.795-15.035-13.527C231.13,158.109,237.708,153.155,247.635,153.982z"/> <path style="fill:#fcf7f7;" d="M250.894,157.32c7.278,0.606,13.803,5.175,13.396,10.107c-0.415,4.939-7.607,8.374-14.889,7.768 c-7.27-0.599-11.876-5.014-11.461-9.953C238.352,160.294,243.617,156.714,250.894,157.32z"/> <path style="fill:#F6A2A3;" d="M265.158,136.852c6.425,7.6,8.718,18.776,3.558,23.139c-5.16,4.378-15.809,0.277-22.237-7.315 c-6.44-7.615-6.219-15.828-1.059-20.198C250.573,128.104,258.722,129.256,265.158,136.852z"/> <path style="fill:#fcf7f7;" d="M265.102,141.529c4.715,5.56,6.103,13.411,2.324,16.606c-3.794,3.207-11.3,0.546-16.019-5.025 c-4.722-5.575-4.853-11.94-1.066-15.15C254.116,134.76,260.38,135.954,265.102,141.529z"/> <path style="fill:#F6A2A3;" d="M294.583,189.735c-9.8-1.747-18.694-8.894-17.512-15.543c1.19-6.649,12-10.297,21.8-8.543 c9.807,1.732,14.889,8.206,13.702,14.859C311.392,187.16,304.391,191.479,294.583,189.735z"/> <path style="fill:#fcf7f7;" d="M291.657,186.109c-7.192-1.28-13.272-6.447-12.4-11.319c0.861-4.876,8.352-7.63,15.536-6.342 c7.184,1.28,11.356,6.103,10.496,10.978C304.413,184.294,298.834,187.381,291.657,186.109z"/> <path style="fill:#F6A2A3;" d="M246.311,180.919c4.602-8.827,14.069-15.18,20.06-12.075c6.002,3.128,6.249,14.522,1.658,23.356 s-12.284,11.76-18.279,8.647C243.762,197.742,241.723,189.754,246.311,180.919z"/> <path style="fill:#fcf7f7;" d="M250.651,179.209c3.368-6.473,10.107-10.735,14.499-8.449c4.393,2.286,4.786,10.238,1.426,16.722 c-3.368,6.473-9.209,9.018-13.616,6.731C248.563,191.931,247.291,185.694,250.651,179.209z"/> <ellipse transform="matrix(-0.0948 0.9955 -0.9955 -0.0948 464.0632 -86.4209)" style="fill:#F4E028;" cx="271.323" cy="167.775" rx="14.245" ry="16.071"/> <ellipse transform="matrix(-0.0949 0.9955 -0.9955 -0.0949 464.0867 -86.4432)" style="fill:#E5CE27;" cx="271.341" cy="167.753" rx="9.385" ry="10.593"/> <path style="fill:#F6A2A3;" d="M239.362,146.719c-0.98,10.327-7.659,20.164-14.66,19.491c-7.016-0.666-11.708-11.585-10.72-21.908 c0.98-10.335,7.278-16.15,14.286-15.502C235.269,129.477,240.346,136.392,239.362,146.719z"/> <path style="fill:#fcf7f7;" d="M235.837,150.064c-0.722,7.57-5.568,14.309-10.698,13.826c-5.145-0.498-8.625-8.03-7.906-15.596 c0.722-7.577,5.381-12.314,10.518-11.817C232.885,136.968,236.563,142.495,235.837,150.064z"/> <path style="fill:#F6A2A3;" d="M253.547,166.027c-8.004,6.601-19.667,8.842-24.153,3.427c-4.486-5.429-0.079-16.486,7.914-23.087 c8.004-6.608,16.569-6.279,21.055-0.849C262.849,150.947,261.547,159.419,253.547,166.027z"/> <path style="fill:#fcf7f7;" d="M248.687,165.9c-5.867,4.846-14.054,6.196-17.343,2.215c-3.289-3.978-0.423-11.772,5.437-16.617 c5.867-4.838,12.513-4.905,15.794-0.92C255.863,154.551,254.546,161.062,248.687,165.9z"/> <path style="fill:#F6A2A3;" d="M216.537,199.572c-3.128-9.882-0.834-21.545,5.882-23.656c6.716-2.125,15.296,6.088,18.425,15.981 c3.136,9.89-0.389,17.699-7.094,19.828C227.044,213.854,219.673,209.473,216.537,199.572z"/> <path style="fill:#fcf7f7;" d="M218.468,195.119c-2.286-7.255-0.46-15.36,4.456-16.913c4.917-1.557,11.072,4.019,13.366,11.278 c2.294,7.252-0.146,13.433-5.066,14.975C226.303,206.03,220.762,202.363,218.468,195.119z"/> <path style="fill:#F6A2A3;" d="M196.118,160.508c10.342,0.857,20.251,7.398,19.667,14.425c-0.584,7.001-11.439,11.832-21.777,10.978 c-10.342-0.861-16.239-7.083-15.663-14.099C178.929,164.811,185.776,159.647,196.118,160.508z"/> <path style="fill:#fcf7f7;" d="M199.508,163.988c7.585,0.629,14.383,5.392,13.957,10.529c-0.43,5.145-7.921,8.726-15.51,8.09 c-7.577-0.629-12.374-5.224-11.94-10.376S191.931,163.351,199.508,163.988z"/> <path style="fill:#F6A2A3;" d="M214.374,142.663c6.694,7.914,9.078,19.558,3.704,24.101c-5.373,4.554-16.464,0.284-23.158-7.622 c-6.717-7.929-6.481-16.494-1.111-21.048S207.665,134.746,214.374,142.663z"/> <path style="fill:#fcf7f7;" d="M214.315,147.527c4.913,5.796,6.357,13.972,2.413,17.306c-3.94,3.341-11.768,0.561-16.685-5.231 c-4.917-5.811-5.051-12.445-1.111-15.787C202.872,140.474,209.39,141.72,214.315,147.527z"/> <path style="fill:#F6A2A3;" d="M245.023,197.75c-10.211-1.819-19.469-9.268-18.241-16.194c1.242-6.93,12.505-10.728,22.713-8.902 c10.215,1.811,15.51,8.557,14.271,15.487C262.543,195.067,255.242,199.572,245.023,197.75z"/> <path style="fill:#fcf7f7;" d="M241.985,193.971c-7.499-1.328-13.826-6.709-12.92-11.787c0.898-5.085,8.696-7.951,16.179-6.615 c7.491,1.328,11.832,6.357,10.941,11.439C255.272,192.088,249.461,195.295,241.985,193.971z"/> <path style="fill:#F6A2A3;" d="M194.745,188.564c4.786-9.194,14.653-15.809,20.902-12.569c6.241,3.252,6.503,15.121,1.725,24.337 c-4.786,9.201-12.804,12.247-19.046,9.003C192.077,206.098,189.959,197.78,194.745,188.564z"/> <path style="fill:#fcf7f7;" d="M199.269,186.783c3.502-6.746,10.526-11.18,15.098-8.801c4.584,2.384,4.984,10.672,1.482,17.422 c-3.51,6.746-9.594,9.392-14.185,7.016C197.091,200.043,195.759,193.533,199.269,186.783z"/> <ellipse transform="matrix(-0.0949 0.9955 -0.9955 -0.0949 415.86 -28.3641)" style="fill:#F4E028;" cx="220.824" cy="174.869" rx="14.84" ry="16.741"/> <ellipse transform="matrix(-0.095 0.9955 -0.9955 -0.095 415.8432 -28.3441)" style="fill:#E5CE27;" cx="220.806" cy="174.852" rx="9.774" ry="11.035"/> <path style="fill:#F6A2A3;" d="M197.765,101.515c0.659,7.543-2.829,15.495-7.944,15.94c-5.123,0.445-9.931-6.769-10.597-14.301 c-0.666-7.551,3.083-12.561,8.198-13.018C192.545,89.691,197.099,93.982,197.765,101.515z"/> <path style="fill:#fcf7f7;" d="M195.68,104.396c0.483,5.527-2.107,10.997-5.852,11.334c-3.757,0.322-7.252-4.61-7.738-10.144 c-0.483-5.534,2.23-9.553,5.987-9.875C191.823,95.386,195.19,98.862,195.68,104.396z"/> <path style="fill:#F6A2A3;" d="M210.502,113.503c-4.868,5.796-12.95,8.954-16.883,5.658c-3.94-3.304-2.245-11.817,2.623-17.62 c4.868-5.796,11.049-6.694,14.99-3.39S215.362,107.7,210.502,113.503z"/> <path style="fill:#fcf7f7;" d="M206.992,114.065c-3.566,4.247-9.268,6.301-12.153,3.873c-2.885-2.413-1.863-8.389,1.695-12.644 c3.573-4.254,8.34-5.175,11.218-2.754C210.64,104.957,210.562,109.81,206.992,114.065z"/> <path style="fill:#F6A2A3;" d="M188.38,142.48c-3.551-6.679-3.442-15.356,1.089-17.759c4.539-2.417,11.787,2.339,15.341,9.025 c3.558,6.687,2.069,12.759-2.462,15.173C197.806,151.337,191.946,149.166,188.38,142.48z"/> <path style="fill:#fcf7f7;" d="M189.177,139.022c-2.601-4.898-2.369-10.956,0.958-12.722c3.326-1.762,8.486,1.418,11.087,6.32 c2.608,4.898,1.68,9.661-1.65,11.424C196.242,145.817,191.785,143.917,189.177,139.022z"/> <path style="fill:#F6A2A3;" d="M168.56,117.148c7.536-0.76,15.51,2.623,16.019,7.745c0.505,5.108-6.642,10.013-14.17,10.758 c-7.536,0.76-12.599-2.93-13.111-8.03C156.785,122.514,161.017,117.9,168.56,117.148z"/> <path style="fill:#fcf7f7;" d="M171.445,119.202c5.527-0.561,11.035,1.957,11.416,5.699c0.374,3.749-4.531,7.308-10.058,7.865 c-5.527,0.546-9.575-2.11-9.946-5.867C162.487,123.15,165.93,119.745,171.445,119.202z"/> <path style="fill:#F6A2A3;" d="M179.288,101.919c5.86,4.801,9.108,12.834,5.852,16.808c-3.252,3.981-11.779,2.391-17.635-2.406 c-5.867-4.793-6.833-10.978-3.581-14.952C167.179,97.388,173.436,97.133,179.288,101.919z"/> <path style="fill:#fcf7f7;" d="M179.894,105.417c4.288,3.514,6.41,9.186,4.019,12.101c-2.391,2.922-8.367,1.964-12.666-1.542 c-4.296-3.521-5.276-8.266-2.885-11.18C170.753,101.881,175.591,101.904,179.894,105.417z"/> <path style="fill:#F6A2A3;" d="M208.586,137.398c-7.57,0.045-15.203-4.071-15.237-9.209c-0.03-5.137,7.551-9.354,15.121-9.399 c7.57-0.052,12.262,4.086,12.292,9.224C220.799,133.155,216.159,137.35,208.586,137.398z"/> <path style="fill:#fcf7f7;" d="M205.896,135.082c-5.553,0.045-10.81-2.982-10.832-6.746c-0.022-3.764,5.19-6.855,10.743-6.885 c5.545-0.037,9.325,2.99,9.354,6.761C215.194,131.969,211.445,135.052,205.896,135.082z"/> <path style="fill:#F6A2A3;" d="M171.277,137.466c2.223-7.229,8.427-13.295,13.336-11.787c4.917,1.504,6.672,9.991,4.464,17.231 c-2.215,7.244-7.562,10.488-12.475,8.988C171.696,150.394,169.073,144.706,171.277,137.466z"/> <path style="fill:#fcf7f7;" d="M174.296,135.587c1.616-5.306,6.065-9.422,9.669-8.318s4.992,7.001,3.368,12.307 s-5.635,8.019-9.246,6.907C174.487,145.395,172.669,140.893,174.296,135.587z"/> <ellipse transform="matrix(0.0873 0.9962 -0.9962 0.0873 295.4544 -74.1117)" style="fill:#F4E028;" cx="188.172" cy="124.183" rx="10.829" ry="12.217"/> <ellipse transform="matrix(0.0876 0.9962 -0.9962 0.0876 295.3774 -74.1498)" style="fill:#E5CE27;" cx="188.167" cy="124.171" rx="7.136" ry="8.053"/> <path style="fill:#F6A2A3;" d="M257.948,67.884c0,11.151-6.133,22.357-13.695,22.357c-7.57,0-13.71-11.203-13.71-22.357 s6.14-18.028,13.71-18.028C251.815,49.856,257.948,56.733,257.948,67.884z"/> <path style="fill:#fcf7f7;" d="M254.52,71.831c0,8.172-4.494,15.88-10.043,15.88c-5.549,0-10.043-7.712-10.043-15.88 c0-8.18,4.494-13.717,10.043-13.717C250.026,58.114,254.52,63.652,254.52,71.831z"/> <path style="fill:#F6A2A3;" d="M275.092,87.105c-7.876,7.876-20.142,11.465-25.493,6.11c-5.351-5.343-1.77-17.605,6.118-25.493 s17.085-8.412,22.436-3.053C283.504,70.016,282.976,79.21,275.092,87.105z"/> <path style="fill:#fcf7f7;" d="M269.88,87.464c-5.781,5.789-14.406,8.06-18.335,4.135c-3.918-3.925-1.643-12.554,4.131-18.335 c5.781-5.781,12.883-6.518,16.808-2.593C276.406,74.585,275.661,81.691,269.88,87.464z"/> <path style="fill:#F6A2A3;" d="M238.917,126.772c-4.355-10.267-3.083-22.978,3.88-25.931c6.971-2.96,16.991,4.962,21.347,15.222 c4.355,10.267,1.388,18.993-5.575,21.946C251.602,140.972,243.272,137.035,238.917,126.772z"/> <path style="fill:#fcf7f7;" d="M240.53,121.803c-3.195-7.528-2.069-16.378,3.042-18.548c5.108-2.163,12.262,3.173,15.457,10.698 c3.188,7.521,1.212,14.391-3.895,16.554C250.022,132.68,243.725,129.324,240.53,121.803z"/> <path style="fill:#F6A2A3;" d="M213.08,87.045c11.151-0.138,22.428,5.86,22.518,13.426c0.094,7.57-11.027,13.841-22.181,13.972 c-11.151,0.138-18.103-5.927-18.189-13.485C195.13,93.399,201.937,87.184,213.08,87.045z"/> <path style="fill:#fcf7f7;" d="M217.072,90.424c8.172-0.101,15.94,4.303,16.004,9.852c0.064,5.549-7.585,10.137-15.764,10.23 c-8.172,0.101-13.77-4.326-13.833-9.875C203.404,95.079,208.9,90.518,217.072,90.424z"/> <path style="fill:#F6A2A3;" d="M230.797,66.095c7.974,7.79,11.716,20.004,6.425,25.41c-5.283,5.422-17.583,1.979-25.564-5.804 c-7.981-7.79-8.617-16.984-3.334-22.398C213.607,57.889,222.816,58.312,230.797,66.095z"/> <path style="fill:#fcf7f7;" d="M231.227,71.303c5.852,5.699,8.228,14.301,4.355,18.271c-3.88,3.978-12.535,1.804-18.387-3.903 c-5.852-5.706-6.679-12.804-2.799-16.771C218.27,64.931,225.375,65.59,231.227,71.303z"/> <path style="fill:#F6A2A3;" d="M269.214,121.915c-11.117-0.906-21.785-7.929-21.171-15.472c0.621-7.543,12.277-12.745,23.394-11.839 c11.117,0.898,17.467,7.57,16.853,15.113C287.684,117.256,280.331,122.813,269.214,121.915z"/> <path style="fill:#fcf7f7;" d="M265.562,118.181c-8.15-0.666-15.472-5.766-15.02-11.3c0.445-5.534,8.498-9.392,16.647-8.726 c8.142,0.659,13.31,5.598,12.857,11.124C279.601,114.809,273.704,118.835,265.562,118.181z"/> <path style="fill:#F6A2A3;" d="M214.475,117.223c4.18-10.335,14.062-18.425,21.077-15.588s8.505,15.513,4.326,25.856 s-12.445,14.413-19.461,11.577C213.409,136.238,210.296,127.554,214.475,117.223z"/> <path style="fill:#fcf7f7;" d="M219.134,114.847c3.061-7.577,10.122-13.044,15.259-10.963c5.145,2.084,6.425,10.904,3.36,18.488 c-3.061,7.577-9.31,11.035-14.455,8.954C218.154,129.253,216.07,122.424,219.134,114.847z"/> <ellipse style="fill:#F4E028;" cx="240.971" cy="99.902" rx="17.994" ry="15.955"/> <ellipse style="fill:#E5CE27;" cx="240.971" cy="99.902" rx="11.861" ry="10.518"/> <path style="fill:#F6A2A3;" d="M298.456,100.194c0.659,7.543-2.829,15.495-7.944,15.94c-5.122,0.445-9.938-6.769-10.597-14.301 c-0.666-7.551,3.083-12.561,8.198-13.018C293.229,88.37,297.79,92.658,298.456,100.194z"/> <path style="fill:#fcf7f7;" d="M296.365,103.071c0.483,5.527-2.099,10.997-5.848,11.334c-3.757,0.322-7.252-4.61-7.738-10.144 c-0.486-5.534,2.23-9.553,5.979-9.875C292.514,94.061,295.882,97.541,296.365,103.071z"/> <path style="fill:#F6A2A3;" d="M311.186,112.179c-4.861,5.796-12.943,8.954-16.883,5.658c-3.94-3.304-2.238-11.817,2.63-17.62 c4.861-5.796,11.049-6.694,14.99-3.39C315.863,100.13,316.054,106.375,311.186,112.179z"/> <path style="fill:#fcf7f7;" d="M307.68,112.74c-3.566,4.247-9.268,6.301-12.153,3.873c-2.881-2.413-1.856-8.389,1.703-12.644 c3.566-4.254,8.333-5.175,11.21-2.754C311.332,103.636,311.253,108.489,307.68,112.74z"/> <path style="fill:#F6A2A3;" d="M289.072,141.155c-3.551-6.679-3.45-15.356,1.089-17.759c4.539-2.417,11.787,2.339,15.341,9.025 c3.558,6.687,2.069,12.76-2.47,15.173C298.497,150.012,292.63,147.842,289.072,141.155z"/> <path style="fill:#fcf7f7;" d="M289.869,137.705c-2.608-4.905-2.369-10.963,0.958-12.73c3.326-1.762,8.479,1.418,11.087,6.32 c2.601,4.898,1.673,9.661-1.65,11.424C296.937,144.497,292.477,142.596,289.869,137.705z"/> <path style="fill:#F6A2A3;" d="M269.244,115.827c7.536-0.76,15.51,2.623,16.026,7.746c0.505,5.108-6.649,10.013-14.178,10.758 c-7.536,0.76-12.591-2.93-13.111-8.03C257.48,121.189,261.708,116.579,269.244,115.827z"/> <path style="fill:#fcf7f7;" d="M272.14,117.878c5.527-0.561,11.035,1.957,11.409,5.699c0.382,3.749-4.531,7.308-10.05,7.865 c-5.527,0.546-9.575-2.11-9.946-5.867C263.171,121.825,266.614,118.42,272.14,117.878z"/> <path style="fill:#F6A2A3;" d="M279.979,100.594c5.852,4.801,9.108,12.834,5.852,16.808c-3.252,3.981-11.779,2.391-17.635-2.406 c-5.867-4.793-6.84-10.978-3.581-14.952C267.871,96.063,274.12,95.808,279.979,100.594z"/> <path style="fill:#fcf7f7;" d="M280.578,104.097c4.296,3.514,6.417,9.186,4.026,12.101c-2.391,2.922-8.367,1.964-12.666-1.542 c-4.296-3.521-5.276-8.266-2.885-11.18C271.437,100.561,276.282,100.579,280.578,104.097z"/> <path style="fill:#F6A2A3;" d="M309.277,136.078c-7.577,0.045-15.207-4.071-15.237-9.201c-0.03-5.145,7.543-9.362,15.121-9.407 c7.57-0.052,12.262,4.086,12.292,9.224C321.491,131.831,316.851,136.025,309.277,136.078z"/> <path style="fill:#fcf7f7;" d="M306.591,133.761c-5.553,0.045-10.81-2.982-10.832-6.746c-0.03-3.764,5.19-6.855,10.735-6.885 c5.545-0.037,9.332,2.99,9.362,6.761C315.878,130.648,312.136,133.731,306.591,133.761z"/> <path style="fill:#F6A2A3;" d="M271.972,136.141c2.223-7.229,8.427-13.295,13.336-11.787s6.672,9.991,4.464,17.231 c-2.215,7.244-7.57,10.488-12.483,8.988C272.38,149.069,269.757,143.385,271.972,136.141z"/> <path style="fill:#fcf7f7;" d="M274.98,134.27c1.624-5.313,6.073-9.429,9.676-8.325c3.596,1.104,4.992,7.001,3.368,12.307 c-1.624,5.306-5.643,8.019-9.246,6.915C275.171,144.07,273.36,139.569,274.98,134.27z"/> <ellipse transform="matrix(0.0873 0.9962 -0.9962 0.0873 386.0276 -175.6566)" style="fill:#F4E028;" cx="288.875" cy="122.84" rx="10.829" ry="12.217"/> <ellipse transform="matrix(0.0875 0.9962 -0.9962 0.0875 385.9331 -175.6567)" style="fill:#E5CE27;" cx="288.847" cy="122.83" rx="7.136" ry="8.056"/> <path style="fill:#fcf7f7;" d="M278.696,351.975l2.331-4.438l-48.329,5.313l-36.153-5.313l2.937,5.635c0,0-0.206,0.528-0.546,1.463 l36.228,5.306l44.479-5.306C279.051,352.955,278.696,351.975,278.696,351.975z"/> </g>
</svg>