<!DOCTYPE svg PUBLIC "-//W3C//DTD SVG 1.1//EN" "http://www.w3.org/Graphics/SVG/1.1/DTD/svg11.dtd">
<!-- Uploaded to: SVG Repo, www.svgrepo.com, Transformed by: SVG Repo Mixer Tools -->
<svg version="1.1" id="Layer_1" xmlns="http://www.w3.org/2000/svg" xmlns:xlink="http://www.w3.org/1999/xlink" viewBox="0 0 512 512" xml:space="preserve" width="800px" height="800px" fill="#000000">
<g id="SVGRepo_bgCarrier" stroke-width="0"/>
<g id="SVGRepo_tracerCarrier" stroke-linecap="round" stroke-linejoin="round"/>
<g id="SVGRepo_iconCarrier"> <path style="fill:#c5ec7e;" d="M141.064,106.032l0.001-2.024l-0.512-1.958c-0.592-2.267-6.409-22.482-27.699-34.071 c-17.64-9.601-39.82-10.111-65.919-1.517l-11.703,3.854l0.961,12.284c0.159,2.035,1.877,20.409,13.028,38.686 c10.281,16.851,30.188,36.233,67.366,36.233c2.38,0,4.839-0.08,7.362-0.245l3.947-0.257l38.841-24.29l-19.603-13.575 C147.076,119.107,141.06,114.417,141.064,106.032z"/> <path style="fill:#c5ec7e;" d="M465.064,66.462c-26.102-8.592-48.28-8.083-65.918,1.517c-21.29,11.588-27.105,31.804-27.698,34.071 l-0.512,1.957l0.001,2.024c0.004,7.813-5.259,12.438-6.196,13.196l-20.437,12.896l39.8,24.891l3.948,0.257 c2.527,0.165,4.98,0.245,7.362,0.245c37.174,0,57.085-19.382,67.366-36.233c11.151-18.277,12.869-36.651,13.028-38.686l0.961-12.284 L465.064,66.462z"/> <path style="fill:#b0e2f7;" d="M289.041,48.534c0,18.139-14.706,32.845-32.834,32.845h-0.262 c-18.024-0.147-32.583-14.789-32.583-32.845s14.559-32.688,32.583-32.834h0.262C274.336,15.7,289.041,30.395,289.041,48.534z"/> <path style="fill:#6aa8e2;" d="M289.041,48.534c0,18.139-14.706,32.845-32.834,32.845h-0.262V15.7h0.262 C274.336,15.7,289.041,30.395,289.041,48.534z"/> <g> <circle style="fill:#b0e2f7;" cx="158.204" cy="106.028" r="32.839"/> <circle style="fill:#b0e2f7;" cx="223.37" cy="106.028" r="32.839"/> </g> <g> <circle style="fill:#6aa8e2;" cx="288.525" cy="106.028" r="32.839"/> <circle style="fill:#6aa8e2;" cx="353.691" cy="106.028" r="32.839"/> </g> <circle style="fill:#b0e2f7;" cx="191.038" cy="48.534" r="32.839"/> <circle style="fill:#6aa8e2;" cx="321.37" cy="48.534" r="32.839"/> <path style="fill:#FF738E;" d="M368.578,59.828c0.869-3.621,1.329-7.41,1.329-11.294C369.907,21.771,348.126,0,321.363,0 c-12.518,0-23.958,4.773-32.572,12.591C280.176,4.773,268.746,0,256.207,0c-0.178,0-0.345,0-0.523,0.01 c-12.319,0.126-23.561,4.867-32.06,12.571C215,4.773,203.57,0,191.042,0c-26.763,0-48.534,21.771-48.534,48.534 c0,3.831,0.45,7.557,1.287,11.137c-19.751,6.144-34.132,24.597-34.132,46.347c0,26.774,21.771,48.545,48.545,48.545 c12.529,0,23.969-4.773,32.583-12.591c8.614,7.819,20.044,12.591,32.572,12.591c12.403,0,23.728-4.668,32.321-12.351 c0.084-0.084,0.178-0.157,0.262-0.23c8.625,7.808,20.054,12.581,32.583,12.581c12.539,0,23.969-4.773,32.583-12.591 c8.614,7.819,20.054,12.591,32.572,12.591c26.774,0,48.545-21.771,48.545-48.545C402.228,84.445,388.088,66.118,368.578,59.828z M321.363,31.4c9.451,0,17.144,7.683,17.144,17.134s-7.693,17.144-17.144,17.144c-8.227,0-15.114-5.83-16.757-13.565 c0.094-1.183,0.136-2.376,0.136-3.58c0-1.204-0.042-2.397-0.136-3.58C306.249,37.22,313.136,31.4,321.363,31.4z M255.684,31.411 c0.178-0.01,0.345-0.01,0.523-0.01c8.227,0,15.114,5.819,16.757,13.554c-0.094,1.183-0.136,2.376-0.136,3.58 c0,1.204,0.042,2.397,0.136,3.58c-1.643,7.735-8.53,13.565-16.757,13.565c-0.178,0-0.345,0-0.523-0.01 c-7.986-0.241-14.612-5.966-16.234-13.523c0.094-1.193,0.136-2.397,0.136-3.611s-0.042-2.418-0.136-3.611 C241.072,37.366,247.698,31.651,255.684,31.411z M191.042,31.4c8.216,0,15.103,5.799,16.757,13.523 c-0.094,1.193-0.136,2.397-0.136,3.611s0.042,2.418,0.136,3.611c-1.654,7.724-8.541,13.533-16.757,13.533 c-9.451,0-17.134-7.693-17.134-17.144S181.59,31.4,191.042,31.4z M158.207,123.162c-9.451,0-17.144-7.693-17.144-17.144 c0-9.441,7.693-17.134,17.144-17.134c8.227,0,15.114,5.83,16.757,13.565c-0.094,1.172-0.136,2.365-0.136,3.569 s0.042,2.397,0.136,3.58C173.321,117.332,166.434,123.162,158.207,123.162z M223.363,123.162c-8.227,0-15.114-5.83-16.757-13.565 c0.094-1.183,0.136-2.376,0.136-3.58s-0.042-2.397-0.136-3.569c1.643-7.735,8.53-13.565,16.757-13.565 c8.206,0,15.093,5.809,16.757,13.523c-0.094,1.193-0.136,2.397-0.136,3.611c0,1.214,0.042,2.418,0.136,3.611 C238.466,117.353,231.579,123.162,223.363,123.162z M288.528,123.162c-8.216,0-15.103-5.809-16.757-13.533 c0.094-1.193,0.136-2.397,0.136-3.611c0-1.214-0.042-2.418-0.136-3.611c1.664-7.714,8.551-13.523,16.757-13.523 c8.227,0,15.114,5.83,16.757,13.565c-0.094,1.172-0.136,2.365-0.136,3.569s0.042,2.397,0.136,3.58 C303.642,117.332,296.755,123.162,288.528,123.162z M353.684,123.162c-8.227,0-15.114-5.83-16.757-13.565 c0.094-1.183,0.136-2.376,0.136-3.58s-0.042-2.397-0.136-3.569c1.643-7.735,8.53-13.565,16.757-13.565 c9.451,0,17.144,7.693,17.144,17.134C370.828,115.469,363.135,123.162,353.684,123.162z"/> <path style="fill:#FF3C62;" d="M368.578,59.828c0.869-3.621,1.329-7.41,1.329-11.294C369.907,21.771,348.126,0,321.363,0 c-12.518,0-23.958,4.773-32.572,12.591C280.176,4.773,268.746,0,256.207,0c-0.178,0-0.345,0-0.523,0.01v31.4 c0.178-0.01,0.345-0.01,0.523-0.01c8.227,0,15.114,5.819,16.757,13.554c-0.094,1.183-0.136,2.376-0.136,3.58 c0,1.204,0.042,2.397,0.136,3.58c-1.643,7.735-8.53,13.565-16.757,13.565c-0.178,0-0.345,0-0.523-0.01v76.543 c0.084-0.084,0.178-0.157,0.262-0.23c8.625,7.808,20.054,12.581,32.583,12.581c12.539,0,23.969-4.773,32.583-12.591 c8.614,7.819,20.054,12.591,32.572,12.591c26.774,0,48.545-21.771,48.545-48.545C402.228,84.445,388.088,66.118,368.578,59.828z M321.363,31.4c9.451,0,17.144,7.683,17.144,17.134s-7.693,17.144-17.144,17.144c-8.227,0-15.114-5.83-16.757-13.565 c0.094-1.183,0.136-2.376,0.136-3.58c0-1.204-0.042-2.397-0.136-3.58C306.249,37.22,313.136,31.4,321.363,31.4z M288.528,123.162 c-8.216,0-15.103-5.809-16.757-13.533c0.094-1.193,0.136-2.397,0.136-3.611c0-1.214-0.042-2.418-0.136-3.611 c1.664-7.714,8.551-13.523,16.757-13.523c8.227,0,15.114,5.83,16.757,13.565c-0.094,1.172-0.136,2.365-0.136,3.569 s0.042,2.397,0.136,3.58C303.642,117.332,296.755,123.162,288.528,123.162z M353.684,123.162c-8.227,0-15.114-5.83-16.757-13.565 c0.094-1.183,0.136-2.376,0.136-3.58s-0.042-2.397-0.136-3.569c1.643-7.735,8.53-13.565,16.757-13.565 c9.451,0,17.144,7.693,17.144,17.134C370.828,115.469,363.135,123.162,353.684,123.162z"/> <g> <path style="fill:#b0e2f7;" d="M300.952,317.947v149.046c0,24.817-20.19,45.007-45.007,45.007h-0.262 c-24.701-0.147-44.745-20.274-44.745-45.007V317.947H300.952z"/> <path style="fill:#b0e2f7;" d="M418.221,176.636l-99.926,172.711h-124.7L93.67,176.636c-6.123-10.582-6.133-23.226-0.031-33.818 c6.113-10.592,17.061-16.914,29.286-16.914h266.043c12.225,0,23.173,6.322,29.286,16.914 C424.355,153.411,424.344,166.054,418.221,176.636z"/> </g> <path style="fill:#6aa8e2;" d="M418.221,176.636l-99.926,172.711h-17.343v117.646c0,24.817-20.19,45.007-45.007,45.007h-0.262 V125.904h133.283c12.225,0,23.173,6.322,29.286,16.914C424.355,153.411,424.344,166.054,418.221,176.636z"/> <rect x="210.936" y="425.126" style="fill:#FF738E;" width="90.014" height="31.4"/> <rect x="255.681" y="425.126" style="fill:#FF3C62;" width="45.269" height="31.4"/> </g>
</svg>